<svg version="1.2" baseProfile="tiny" xmlns="http://www.w3.org/2000/svg" xmlns:xlink="http://www.w3.org/1999/xlink" viewBox="0 0 667.467 493.475">
	<path fill="#ff748c" d="M432.023,321.517c-15.021,33.594-26.389,70.842-40.035,105.811c-15.675,6.297-42.605,10.925-63.869,14.298
	c4.981-0.214,9.517,0.017,13.345,0.954c-0.896,7.684-5.637,11.521-15.251,10.485c5.5,6.842,22.356-3.008,23.773,8.167
	c0.109,0.105,0.182,0.197,0.182,0.258c-0.007,1.863-0.096,3.674-0.461,5.446c16.068-11.23,37.115-17.478,47.046-34.843
	c3.373,2.111,6.86,6.742,11.44,4.768c-0.867-4.535-5.69-5.115-6.673-9.533c13.732-46.03,30.193-88.752,47.663-134.408
	c4.86-12.703,8.546-16.445,5.72-32.412c-6.359-35.917-12.322-83.611-17.159-123.922c1.17-3.597,4.979-4.553,8.579-5.72
	c24.5,56.663,58.797,107.204,71.494,173.493c3.75,19.572,5.258,40.027,10.486,60.053c-0.057-0.043-0.109-0.09-0.164-0.136
	c0.232,0.79,0.322,1.624,0.243,2.519c0.005-0.068-0.204-0.254-0.464-0.456c0.514,1.733,1.004,3.473,1.154,5.296
	c-0.016-0.193-0.168-0.374-0.393-0.551c0.525,1.973,0.521,4.053,0.854,6.08c-0.007-0.045-0.05-0.103-0.106-0.166
	c4.041,14.9,4.367,33.52,8.408,48.422c-12.692,1.799-27.094-3.483-36.226,0.955c4.224-4.315-2.172-2.432-6.672-2.859
	c-0.151,3.963,5.722,1.904,6.672,4.766c-3.812,6.991-13.991,7.615-20.972,11.439c7.433,2.006,16.299,2.58,22.964,5.354
	c0.027,0.002,0.054,0.006,0.079,0.012c-0.003-0.008-0.009-0.012-0.012-0.02c0.003,0.006,0.012,0.014,0.018,0.02
	c0.126,0.027,0.25,0.09,0.373,0.18c0.139,0.057,0.276,0.112,0.409,0.174c-0.075-0.013-0.159-0.027-0.243-0.04
	c0.162,0.146,0.322,0.323,0.483,0.519c0.128,0.105,0.257,0.212,0.384,0.318c0.389,0.326,1.131,0.746,1.396,1.195
	c0.666,0.337,1.26,0.887,1.809,1.344c0.123,0.082,0.477,0.363,0.839,0.662c11.915-3.115,20.593-14.496,30.604-17.344
	c5.296-1.505,9.63,1.744,14.3-0.953c-2.758-2.645-6.915-3.889-10.486-5.721c-1.119-15.09-5.214-27.204-6.59-42.038
	c-0.183-0.162-0.314-0.333-0.348-0.524c-0.527-2.889-0.827-5.782-0.992-8.691c-1.856-4.215-3.021-8.922-2.556-14.52
	c0.099-0.225,0.222-0.469,0.362-0.727c-0.117-0.09-0.264-0.212-0.271-0.254c-0.122-0.785-0.177-1.57-0.204-2.359
	c-0.271,0.169-0.548,0.333-0.842,0.48c-6.857-37.381-6.303-77.121-18.111-103.905c-17.75-40.256-39.965-83.466-57.195-124.876
	c2.331-4.555,8.305,0.335,13.346-0.953c1.848-1.298-5.801-1.127-7.627-1.907c2.011-2.439,7.031-1.865,11.44-1.906
	c-1.952-4.463-9.416,1.367-13.346-1.906c5.502-3.636,2.085,0.807,8.579-0.954c-1.442-1.417-4.185-1.536-6.673-1.906
	c20.761-22.077,62.957-4.211,91.514-0.954c0.934-10.07-7.066-18.814-16.205-21.925c-4.176-7.265-10.79-12.089-17.16-17.158
	c8.791-3.284,20.914-3.236,26.691-9.533c-3.284-5.759-17.498-12.417-28.598-16.206c-39.668-20.429-83.292-29.996-133.454-24.785
	c-2.197,0.229-4.468-0.127-6.673,0c-67.781,3.913-129.884,65.483-124.877,142.036c0.15,2.295,0.619,9.611,0.953,14.299
	c2.834,39.696,35.022,63.366,35.271,101.997c0.195,30.269-14.326,45.687-38.131,43.85c-9.044-0.697-17.314-3.756-26.691-4.767
	c-28.364-3.058-58.565-25.195-77.214,0c-17.158,1.864-28.621,12.253-33.954,18.839c-5.602,6.918-9.156,16.771-9.333,24.397
	c-0.068,2.91,0.132,15.011,3.149,15.557C120.167,360.599,136.167,349,146,348.333c0,0-27.167,24-21.5,43.833
	c11.872-11.495,28.092-26.772,40.613-33.474c17.808-9.532,44.803-16.206,44.803-16.206c17.419-0.534,23.357,3.854,37.177,4.767
	c40.682,2.685,58.455-19.17,61.961-47.662c5.64-45.834-32.439-89.481-28.598-130.596c1.266-13.539,8.671-24.436,13.345-33.364
	c18.15-15.054,40.565,1.485,59.103,6.673c24.984,6.992,54.98-1.793,76.26-6.673c3.943,44.354,11.688,84.91,17.158,127.735
	c0.767-0.504,1.548-0.993,2.86-0.951C445.617,284.27,437.915,301.986,432.023,321.517c1.418-0.809,1.379-3.07,1.907-4.767
	 M535.929,107.987c3.251,0.879,7.858,0.401,9.532,2.86C541.944,110.232,538.177,109.869,535.929,107.987z M514.004,438.766
	c2.815-3.897,8.805-1.556,7.626,1.907c-0.267-1.959-2.548-1.902-3.813-2.859c-0.508,1.372,3.714,2.324,0.953,2.859
	c-0.262-0.867-3.551-3.202-3.813-0.953c1.558-0.694,4.147,1.895,1.906,1.905C516.757,439.825,513.712,440.964,514.004,438.766z
	 M503.518,440.673c1.064-1.852,7.879-2.851,8.58-1.907c-2.533,1.383,4.228,1.402,3.811,3.814c-2.789,0.49-4.686-4.746-6.673-1.906
	c2.225,0.318,4.108,0.977,4.768,2.859c-3.59-0.224-4.037-3.59-7.627-3.813c-0.831,1.957,4.851,1.901,1.906,2.859
	c-1.27,0.143-2.877-3.875-3.814-0.954c3.181,0.587,3.255,2.798,6.673,0.954c0.613,2.311-4.54,3.572-4.766,1.907
	C509.246,443.059,503.108,442.78,503.518,440.673z M505.424,430.186c-1.197-0.391-1.947-1.228-1.906-2.859
	c2.238,0.305,3.578,1.506,6.673,0.953c-0.837,3.06,2.472,1.977,2.859,3.813c-3.043,0.728-4.671,1.404-1.907-0.953
	c-3.969,1.963-6.664,2.702-10.484,2.859c-0.561-3.266,4.506,0.084,1.906-3.813C504.203,429.811,505.008,431.601,505.424,430.186z
	 M532.115,427.327c-8.325,2.573-22.832-0.197-26.691-1.908C514.277,426.101,524.155,425.755,532.115,427.327z M535.929,429.233
	c-1.271,0.955-2.878,1.57-3.814,2.859c-4.771-1.936-10.182,1.235-16.206,0.954c-0.011,0.961-1.671,1.198-1.905,0
	C521.336,432.425,528.818,426.904,535.929,429.233z M365.296,445.439c-1.288-0.936-1.905-2.543-2.859-3.814
	c4.107-1.245,3.015,2.706,4.767,3.814c2.925-1.237,8.732-4.57,10.484-3.814c-3.938,2.265-14.549,7.47-16.205,5.721
	C363.258,447.214,364.669,446.718,365.296,445.439z M366.248,454.019c2.324-2.445,6.032-3.5,8.58-5.72
	c-0.738-0.212-1.879-0.026-1.905-0.953c1.64-0.051,2.444,0.733,2.859,1.907C372.103,449.737,369.129,455.9,366.248,454.019z
	 M360.529,453.065c9.225-1.159-7.143-0.216-2.859-1.906c3.177-1.253,8.009-0.186,9.533,1.906
	C364.248,451.81,361.916,455.89,360.529,453.065z M349.09,454.019c3.992,1.994,5.189-3.588,6.674-0.954
	c-3.715,1.958,7.896,1.487,4.766,2.86c-2.998-1.092-2.314,1.497-3.811,1.906C351.441,455.736,351.416,456.811,349.09,454.019z
	 M350.044,446.392c2.974-1.134,12.438-3.307,11.438,0c-2.146-1.866-7.139-0.799-8.578,0.954c1.121,0.147,2.705-0.165,2.859,0.953
	c-1.959,1.037-10.599,1.897-5.72-0.953c-1.671-0.264-4.756,2.685-5.72,0c4.411-2.712-1.438-1.189-0.953-3.814
	c9.258,2.685,4.746-3.398,11.439,0.954C352.445,444.346,350.184,444.308,350.044,446.392z M384.361,432.093
	c-3.346,1.143-3.365,1.164-3.813,3.814c-8.457-0.04-13.869,5.409-20.02,1.907c7.648-0.713,13.958-4.223,20.02-3.815
	c-1.123-0.148-2.707,0.164-2.861-0.952C380.219,433.591,386.091,429.739,384.361,432.093z M324.307,55.558
	c0.052,1.219,1.222,1.321,0.953,2.86c-3.516,0.586-4.673,2.046-5.72,2.86c-4.985,3.876,0.436-0.655,0.28-2.395
	c-0.101-0.124-0.196-0.269-0.28-0.465c0.179,0.109,0.262,0.27,0.28,0.465c1.193,1.465,3.499-1.792,4.487-2.371
	C320.943,55.979,327.67,53.643,324.307,55.558z M335.746,55.558c-1.003-0.052-0.75-1.221,0.953-0.953
	c-1.082,3.066,4.995,6.713,1.906,5.719c-0.641-4.068-9.001,0.758-5.72-2.859c-3.204-1.207-5.042,3.733-6.672,0.953
	c3.388,1.482,0.575-3.237,2.859-2.86C327.838,58.558,334.717,56.312,335.746,55.558z M328.12,79.39
	c5.999,0.882,13.557-8.565,16.205-1.907c-1.975,0.568-6.263-1.178-6.674,0.954h10.488c-0.072,1.66,0.212,2.964,0.951,3.813
	c-2.045,1.766-6.982,0.643-10.484,0.953c-0.957-1.267-0.902-3.547-2.859-3.813c-0.053,1.218-1.222,1.32-0.954,2.86
	c4.353-1.406,1.701,5.145,5.719,3.813c0.694,2.601-1.895,1.919-1.906,3.814c-7.976,1.303-10.134-3.212-11.439-8.58
	c2.364-1.237,4.625,2.127,4.766,0C332.667,79.155,324.518,81.27,328.12,79.39z M365.296,92.735
	c-6.433-3.123-16.528-2.02-20.972-4.767c10.764-0.22,21.449,2.357,23.832,7.626c-6.931-1.331-14.322-2.201-20.018-4.766
	C354.959,89.745,361.232,94.23,365.296,92.735z M371.969,94.642c1.697,0.527,3.959,0.49,4.767,1.907
	c-3.634-0.18-6.272-1.354-6.673-4.767c3.477-0.869,5.943,4.141,8.58,0.954c-2.975,1.586-4.617-3.546-2.86-0.954
	c8.804,1.507,23.681,4.009,28.597,0.954c-0.682,4.836-12.964,1.164-9.533,4.766c-5.414-1.087-13.59,0.506-14.297-0.953
	c1.426-0.163,3.518,0.34,3.813-0.954C379.18,96.928,374.518,92.778,371.969,94.642z M407.238,116.566
	c1.398,0.01,7.802-0.36,4.768,0.954c-2.885-0.431-10.625,2.598-8.58,0.954c2.779-1.711,3.762-0.768,3.813-3.813
	c3.461,1.161,7.525-1.906,8.58,0C414.612,116.949,408.301,114.134,407.238,116.566z M432.977,120.379
	c2.467,2.01,12.229,1.715,10.486,4.766c-5.391-2.553-12.41-3.477-16.205-7.626c3.881,0.566,8.461,0.435,10.485,2.86
	C435.376,121.619,433.787,117.583,432.977,120.379z M427.258,114.66c-3.051-1.543,6.243-1.124,10.485-0.954
	c5.508,0.221,12.036,0.505,13.345,2.86C443.58,115.496,436.209,114.288,427.258,114.66z M449.183,87.969
	c1.163,0.108,2.257,0.285,1.905,1.907c-3.128,0.999-4.202-0.611-6.672,1.906c-3.613-4.965-17.704,0.545-22.877-2.86
	c2.614,0.141,4.914,0.178,2.859-1.906c2.923,0.926,10.621,2.039,13.345,0c-3.539-0.592-9.812,1.549-10.485-1.907
	c5.259-1.24,22.125-2.398,22.879,0.953c1.16-3.992,4.274,0.554,6.672,0.954C454.529,87.596,449.893,85.819,449.183,87.969z
	 M473.014,84.156c-5.461,0.007-11.004-1.31-15.252-1.906c-17.012-2.387,1.333,0.41,4.766-1.907c2.588,0.591,7.565-1.21,8.58,0.954
	c-2.587,0.591-7.564-1.21-8.58,0.954c2.983,0.194,6.998-0.643,8.58,0.953c-0.215-1.802,1.073-2.103,0.952-3.813
	c6.784-1.046,13.543,2.954,19.065,0c-8.813,1.808-12.631-6.416-19.065-3.813c4.879,0.735-4.144,0.951,0.954,2.86
	c-2.169-0.691-4.87-0.85-6.673-1.907c3.136,4.737-11.878-1.512-3.814,2.86c-8.199-1.651-17.219-2.481-23.83-5.72
	c6.596,0.61,0.391-1.21,2.859-2.86c1.469,0.83,6.586,2.845,7.626,0.954c-2.099-1.398-7.105,0.114-7.626-2.86
	c11.125-0.631,24.283,1.825,33.363,3.813c-3.611-1.154-7.688-1.845-10.486-3.813c6.948-1.209,11.42,5.077,16.205,2.86
	c-2.441-0.101-4.543-0.54-5.719-1.907c7.879,0.7,13.891,3.268,20.019,5.72c-4.161,0.936-7.906-3.47-10.486-0.954
	c2.441,0.101,4.546,0.539,5.72,1.907c-4.629,1.405-7.75-3.627-10.486-0.953c3.164,1.595,13.049,5.222,13.346,0.953
	c6.118,3.158,21.642-1.915,21.926,0.953c-1.015,2.265-4.392-2.042-5.721,0.954c1.123,0.148,2.707-0.164,2.861,0.953
	c-5.393,2.405-10.838,0.436-15.82,1.803c1.65-0.007,5.288,0.205,3.426,1.057c-3.196,1.461-19.248,2.913-24.783,2.859
	c5.289,0.05-6.471,2.744-5.72,0C470.626,84.947,472.719,85.45,473.014,84.156z M477.78,66.044c0.104,1.801,3.151,0.661,2.858,2.86
	c-7.414-1.808-15.701-7.801-22.877-6.673c4.989,1.683,10.783,2.563,14.298,5.72c-3.309,0.085-7.403-3.971-9.532-1.907
	c1.559-0.694,4.147,1.894,1.906,1.907c-2.576-2.506-8.279-1.889-10.484-4.767c2.367-1.24,3.955,2.797,4.766,0
	c-3.33-1.066-8.219-0.402-10.486,0c4.212,1.508,9.515,1.925,12.393,4.767c-5.386-0.652-9.047-3.029-14.299-3.813
	c5.375-8.848,19.141-0.215,25.737-0.953c-2.312-0.913-9.566-1.809-7.626-3.813c8.254,3.185,17.446,5.432,24.785,9.533
	C484.756,68.602,481.725,66.865,477.78,66.044z M484.452,64.137c3.306,1.778,8.763,1.406,10.486,4.767
	c-7.544-2.625-16.114-4.221-21.925-8.58c4.621-1.084,7.694,4.324,10.484,1.907c-2.117-0.74-5.168-0.551-5.718-2.86
	c8.125,2.678,16.837,4.771,23.83,8.58C494.909,68.281,489.182,62.607,484.452,64.137z M496.844,63.184
	c3.838,1.564,9.185,1.619,11.439,4.767c-8.164-2.64-17.039-4.567-23.831-8.58c4.556-0.706,8.392,4.269,11.439,1.906
	c-1.696-0.527-3.958-0.49-4.767-1.906c8.695-0.348,21.218,1.833,23.832,6.673c-5.064-1.307-11.427-6.346-16.206-4.767
	c4.462,1.258,8.672,2.769,12.392,4.767C505.4,66.68,500.623,61.345,496.844,63.184z M522.582,65.091
	c-6.77-2.127-14.252-3.541-20.017-6.673c4.922-0.76,9.533,3.769,12.392,1.907c-2.657-0.839-5.802-1.19-7.626-2.859
	c6.975,1.285,13.858,2.665,18.11,6.672C523.238,63.848,520.615,62.103,522.582,65.091z M437.743,39.353
	c-1.698-0.528-3.959-0.49-4.767-1.907c10.639,1.119,17.16,6.354,26.691,8.579c-3.043,2.565-16.317-5.801-20.971-4.766
	c3.938,0.829,6.547,2.985,10.485,3.813c1.909,3.003-7.057-2.502-7.626,0c2.441,0.736,5.403,0.951,6.672,2.86
	c-3.526,0.435-12.539-5.525-8.579-0.954c-3.382-1.352-13.897-2.606-9.532-5.719c-4.215,0.401-6.682-0.945-8.578-2.86
	c4.176,0.694-0.77-1.894,1.904-1.907C427.984,37.061,434.765,40.393,437.743,39.353z M401.52,42.212
	c-5.82-0.868-13.426-4.984-16.204-5.72c2.21,0.304,3.658-0.153,4.767-0.953c3.521,3.784,12.184,2.431,13.344,8.579
	c-1.127,1.013-6.033,0.433-6.673-1.907C399.121,40.973,400.709,45.01,401.52,42.212z M401.52,53.652
	c-0.74-0.214-1.881-0.027-1.906-0.954c2.637-0.161,3.273,1.465,1.906,2.86c4.176-1.284,8.209-1.012,10.486,1.907
	c-2.656,0.356-5.801-3.631-7.627-0.954c1.664,0.822,12.416,2.558,5.721,2.86c-4.576-0.848-10.367-5.493-14.299-3.814
	c3.309,1.14,7.404,1.493,9.532,3.814c-4.321-0.787-13.093-2.128-10.487-6.673C396.018,53.523,400.586,55.734,401.52,53.652z
	 M386.268,51.745c1.803,0.423,5.746-1.297,4.767,1.907c-3.384,3.25-6.687-1.093-6.794-3.151c-0.561,0.569-2.651-0.989-2.738-1.616
	c3.643-0.148,6.941,0.049,8.58,1.907C388.654,50.954,386.564,50.451,386.268,51.745z M387.221,47.932
	c-2.639-0.857-8.947,1.958-8.578-1.907C380.558,47.025,388.916,46.482,387.221,47.932z M371.969,59.371
	c2.527,0.015,5.613-0.529,5.719,1.906h-7.625c0.115-2.72-5.553-4.531-6.672-2.86c0.607,1.934,4.455,0.628,4.766,2.86
	c-4.444,1.008-4.658,0.257-10.486,0.954c0.034-4.456,2.712-1.817,5.721-1.907c-0.228-1.36-1.57-1.608-1.908-2.859
	c3.465-0.032,4.189-2.803,3.814-6.673h5.72c1.527,3.751-4.116,0.332-3.813,2.86c2.696,0.163,6.54-0.82,6.673,1.906
	c-4.773,0.5-5.717-2.409-7.628,0.954c3.307,0.509,9.043-1.416,9.534,1.906C374.355,58.58,372.264,58.077,371.969,59.371z
	 M345.279,61.277c2.385-0.162,2.982,1.465,3.811,2.86c-1.426,0.163-3.518-0.34-3.811,0.954c-2.643-0.868-6.389-1.545-2.861,0.953
	c-2.795-1.416-3.541,1.078-4.768-1.907c2.957,0.324,4.555-2.206,6.674,0C341.408,60.128,348.434,65.049,345.279,61.277z
	 M353.857,77.482c-5.393,0.487-8.009,1.012-9.533-3.813c1.063-3.622,9.092-1.92,9.533,0.953c-1.122,0.149-2.707-0.164-2.859,0.954
	c2.693-0.788,2.469,1.343,4.766,0.953c0.6,5.285-5.486,5.524-6.674,1.907C350.477,77.915,354.018,79.55,353.857,77.482z
	 M366.248,86.062c-3.287-2.113-11.609,0.807-12.391-3.813c3.761-0.537,7.715,3.66,10.486,0.953c-2.371-1.124-7.433,0.442-7.626-2.86
	c4.048-0.217,12.581,3.293,18.11,4.767C371.594,85.996,364.103,81.767,366.248,86.062z M391.034,90.829
	c3.806-1.353,10.017,3.203,7.626,1.907c-6.799-3.226-15.16,1.001-20.973-2.86c6.816-5.46,19.21-0.514,27.646,0.953
	c6.427-0.316,2.122,1.699-1.907,0.953c-2.621-0.351-6.105-1.866-11.438-1.906C391.405,89.929,390.859,90.018,391.034,90.829z
	 M438.697,78.437c2.832-0.228,9.205,0.876,7.625,1.906c-3.629-0.308-9.313-2.147-11.439-0.953c-0.213-1.802,1.074-2.104,0.953-3.813
	c6.822-0.15,10.728,2.619,17.16,2.86c1.065,1.98,1.027,2.02-0.955,0.953C447.233,80.035,442.411,75.718,438.697,78.437z
	 M442.51,58.417c-3.393-0.143-5.767-6.252-9.533-2.86c3.404-0.025,6.025,1.313,2.859,2.86c1.698,0.527,3.959,0.49,4.767,1.907
	c-4.526,3.384-9.727-2.795-13.345,0c1.008,0.691,7.264,0.85,4.766,1.907c-4.093-0.038-7.017-1.243-9.532-2.86
	c2.45-1.122,11.431-0.157,6.673-2.86c2.489-0.79,5.229,2.883,6.672,0c-2.439-0.101-4.543-0.54-5.719-1.906
	c7.391-6.074,17.316,1.446,24.785,3.813c-3.635,0.351-7.371-2.233-3.814,0.954c-2.365,1.24-3.955-2.796-4.766,0
	c0.74,0.213,1.881,0.026,1.906,0.953c-2.641-0.736-6.387-0.951-2.859-2.859C441.967,57.359,439.344,55.558,442.51,58.417z
	 M446.322,66.044c0.695,3.134-1.894,1.459-1.906,0c2.306-2.531,10.19,2.072,7.625,0.953
	C449.691,67.123,447.449,67.142,446.322,66.044z M473.014,57.465c-8.893-1.276-15.788-4.549-22.877-7.626
	C458.887,51.255,466.175,54.136,473.014,57.465z M455.855,48.885c10.088,1.668,18.053,5.461,25.737,9.532
	C472.67,55.583,463.182,53.314,455.855,48.885z M465.387,57.465c-9.06-1.424-15.807-5.165-23.83-7.626
	C445.752,48.624,458.978,54.568,465.387,57.465z M458.715,57.465c-8.94-2.5-19.529-3.35-23.832-10.486
	C440.848,52.454,451.574,53.166,458.715,57.465z M429.164,49.838c-2.368,0.143-3.956-0.493-4.766-1.906
	c2.656,0.839,5.799,1.19,7.625,2.86c-3.207,0.334-6.949,2.166-8.58-0.954C425.886,48.805,427.988,52.734,429.164,49.838z
	 M412.006,50.792c5.207-1.464,11.415,0.243,15.252,2.86c-4.442,0.279-9.053-4.25-12.393-1.907c1.961,0.339,8.686,0.744,5.72,2.86
	c-0.396-3.251-5.228,1.441-4.767-0.953C418.639,52.272,412.115,52.381,412.006,50.792z M441.557,66.044
	c-2.697,1.175-5.885,1.175-8.58,0c-2.382-2.907,5.823,2.274,6.673-0.953c-1.772-0.526-8.652-0.779-6.673-1.907
	C436.4,63.574,440.361,63.425,441.557,66.044z M439.649,70.81c-2.474,1.021-6.923,3.789-7.626-0.953c1.697-0.57,3.959,2.794,4.767,0
	c-0.53,0.003-1.082-0.772,0-0.953C436.805,70.478,439.434,69.437,439.649,70.81z M430.117,82.249
	c1.837-0.388,0.754-3.696,3.814-2.86c1.126,1.732,4.97,0.749,6.672,1.906C449.351,82.269,430.782,82.373,430.117,82.249z
	 M416.772,65.091c5.299,0.42,9.761,1.677,13.345,3.813c-3.929,0.078-11.584-2.551-16.206-4.767
	c10.974-1.332,15.622-0.122,20.02,3.813C430.218,69.185,422.385,61.897,416.772,65.091z M390.082,79.39
	c2.434,1.027,3.336-4.104,4.764-0.953c4.162,0.288,7.907,0.991,10.487,2.859c-4.787,0.337-7.28-1.617-10.487-2.859
	c-3.362,0.28,3.365,2.579,0,2.859C395.275,78.642,389.65,82.043,390.082,79.39z M395.801,75.577
	c1.762,3.004,8.972,0.561,10.484,3.813C402.728,78.784,394.025,78.347,395.801,75.577z M398.66,69.857
	c0.903-2.146,3.076-1.778,4.766,0C395.834,72.464,382.756,67.048,398.66,69.857z M418.678,74.623
	c-0.715,3.255-11.399-4.242-15.252-0.953c4.283-0.152,7.489,0.773,9.533,2.86c-5.416-2.335-10.318-0.258-15.254-1.907
	c2.227-1.395,7.668,1.354,3.814-1.906C407.858,69.705,413.078,73.943,418.678,74.623z M415.818,77.482
	c3.009-0.466,3.366,1.719,6.673,0.954c0.097-1.07-1.386-1.484,0-1.907c0.328,2.515,9.077-2.308,5.72,1.907
	c-2.35-2.287-6.78,1.435-9.533,1.906C420.725,76.888,412.207,79.373,415.818,77.482z M426.305,73.67
	c-1.697-0.527-3.96-0.489-4.766-1.906c3.795,0.017,6.713,0.912,8.578,2.859c-6.358,1.707-11.985,0.063-16.206-2.859
	C419.773,70.492,421.299,75.797,426.305,73.67z M407.238,81.296c-1.482-3.389,3.238-0.576,2.861-2.859
	c-1.123-0.149-2.707,0.164-2.861-0.954c4.063-0.038,6.208,1.248,7.627,1.907C420.48,81.998,409.23,78.644,407.238,81.296z
	 M404.379,69.857c2.096-1.083,3.168-3.188,5.721-3.813c1.039,3.727,8.492,1.04,9.531,4.766
	C412.258,68.442,409.498,70.877,404.379,69.857z M411.052,65.091c4.772,1.902,11.177,2.168,15.253,4.766
	c-2.739-1.332-4.843,2.598-5.72,0c0.739-0.214,1.88-0.027,1.906-0.953C418,68.31,413.112,68.114,411.052,65.091z M430.117,79.39
	c-0.172,4.021-5.313,3.633-7.626,3.813c-6.858,0.533-4.886-4.202,3.813-0.953c0.002-0.956-0.772-1.135-0.954-1.907
	C428.344,81.401,427.869,80.789,430.117,79.39z M414.873,86.097c0.311-0.001,0.625-0.011,0.945-0.035
	C415.416,86.093,415.111,86.103,414.873,86.097c-4.988,0.023-8.624-2.707-14.057-1.057c1.107-0.195,4.033,0.504,3.563,1.022
	c-3.456,3.813-12.365-5.393-16.204-1.906c2.189,1.035,10.221,1.154,8.578,2.86c-3.369-1.396-8.915-0.616-11.438-2.86
	c2.564,0.657,1.841-1.971,2.859-2.86c4.309,0.365,13.794,4.874,8.578,0.954c5.058-1.119,18.663,4.362,12.392,0
	c4.55-0.736,6.135,1.491,10.486,0.953C420.584,83.461,411.939,86.037,414.873,86.097z M418.678,88.921
	c-3.012,0.153-5.753,0.034-6.672-1.906C415.018,86.863,417.759,86.982,418.678,88.921z M414.865,90.829
	c-3.725,0.348-9.365-0.851-13.346-2.86C405.973,88.917,411.994,88.297,414.865,90.829z M383.408,84.156
	c-6.99-0.365-10.332-0.313-16.205-2.86C373.816,81.037,379.678,81.531,383.408,84.156z M363.391,76.53
	c4.428,0.337,8.309,1.223,11.438,2.86C370.725,78.728,365.178,79.508,363.391,76.53z M349.09,61.277
	c1.539-1.626,4.915-0.873,5.721,0.954C351.44,61.393,349.9,64.679,349.09,61.277z M361.482,67.951
	c0.967,4.462-7.16-0.171-7.625,2.859c3.92,0.212,9.032-0.771,9.533,2.86c-1.787-0.211-6.318-2.457-7.627,0
	c2.548,0.63,5.956,0.399,7.627,1.907c-2.238,0.304-3.579,1.506-6.673,0.953c-0.683-4.72-6.052-4.752-7.628-8.579
	C354.129,66.851,358.57,69.932,361.482,67.951z M378.643,62.231c0.4,2.1-2.855,5.258-3.815,2.86
	c0.582-0.054,1.129-0.143,0.954-0.954c-1.497-0.09-3.305,0.128-2.859-1.906H378.643z M390.082,77.482
	c-7.002,3.281-18.435,0.185-24.786-2.859C377.875,76.562,383.232,77.756,390.082,77.482z M380.549,64.137
	c1.313-0.316,8.721,1.415,11.44,2.86C386.711,66.706,381.478,66.29,380.549,64.137z M382.454,62.231
	c7.172,0.771,13.035,2.853,19.065,4.766C393.553,67.02,388.42,64.209,382.454,62.231z M386.268,62.231
	c4.33-3.817,14.474,2.541,20.018,3.813C398.313,66.072,393.991,62.451,386.268,62.231z M408.192,65.091
	c-4.892-3.698-20.099-2.13-19.065-8.58C392.765,61.463,407.27,60.598,408.192,65.091z M408.192,50.792
	c0.004-0.957-0.772-1.134-0.954-1.907c1.776,0.131,3.188,0.627,3.813,1.907c-3.722,2.86-10.468-1.993-7.626-1.907
	C404.236,50.299,405.825,50.935,408.192,50.792z M407.238,38.399c-3.73,0.021-2.395-0.677-4.766-0.953
	C391.882,36.211,407.118,35.213,407.238,38.399z M421.539,47.932c-7.27-2.039-12.927,1.941-19.066-1.907
	C406.957,41.271,415.921,45.643,421.539,47.932z M418.678,42.212v2.86c-0.229-2.936-7.471,0.55-3.813-2.86
	C403.357,43.402,410.285,39.925,418.678,42.212z M412.006,34.586c1.72,1.944,10.502-1.759,9.533,0.954
	C417.983,34.196,412.871,39.35,412.006,34.586z M441.557,38.399c5.523-1.293,19.352,5.358,26.689,8.579
	C458.016,45.453,450.961,40.75,441.557,38.399z M448.228,37.446c11.699,0.193,21.709,3.098,32.41,8.579
	c-8.933,0.027-15.801-7.063-22.877-5.719c5.918,1.708,11.959,3.291,16.205,6.672C464.85,44.34,456.121,41.311,448.228,37.446z
	 M497.798,55.558c-3.157,0.162-9.974-2.522-5.72,0.954c-3.207,0.602-6.949-3.133-8.58-0.954c1.777,0.131,3.187,0.628,3.815,1.907
	c-8.07-1.462-15.264-3.801-20.972-7.626c6.354-0.3,11.436,5.699,16.206,3.813c-4.127-1.277-8.735-2.069-11.44-4.767
	c3.981-0.805,4.502,1.854,7.626,1.907c0.002-0.957-0.772-1.134-0.953-1.907C484.906,50.656,491.485,52.973,497.798,55.558z
	 M484.452,48.885c7.548,1.35,14.059,3.736,20.017,6.672C497.063,54.069,489.968,52.267,484.452,48.885z M433.931,92.735h1.905
	c15.11-0.615-1.34,3.219-4.766-0.954c3.483-0.646,6.931-1.33,11.439-0.953C445.189,93.264,434.306,90.196,433.931,92.735z
	 M412.959,99.408c2.881-0.885,7.414,1.361,7.626,0c-3.927-3.277-10.907,2.07-13.347-1.907c1.427-0.162,3.52,0.341,3.813-0.953
	c-2.913-0.689-3.474,0.974-5.719,0.953c2.104-5.223,16.538-2.062,12.392-6.672c4.844-0.713,7.311,0.951,8.58,3.813
	c-3.837,0.612-10.137-1.239-12.394,0.953c6.458,1.168,17.655-2.402,20.972,1.906c2.852,2.372-7.337-0.402-6.672,1.907
	c-0.104-0.361,3.783,0.652,2.859,0.954C423.451,102.842,419.285,102.909,412.959,99.408z M419.631,111.8
	c-2.147,0.459-7.139,2.943-8.579,0.953C413.588,112.684,418.375,109.993,419.631,111.8z M398.66,102.268
	c3.121,0.414,12.982-0.964,11.439,0.953c-1.677,0.548-5.602-1.152-5.721,0.954c2.588,0.59,7.565-1.21,8.58,0.953
	C409.422,106.706,401.326,106.498,398.66,102.268z M393.894,100.361c4.466,0.617,11.415-1.247,14.299,0.953
	C403.725,100.697,396.777,102.561,393.894,100.361z M388.175,98.455c2.836,0.036,5.601-0.048,8.578,0
	C412.91,98.714,395.351,100.738,388.175,98.455z M348.139,84.156c8.598-0.011,15.502,6.726,22.877,4.766
	c-2.172,0.268-3.583-0.229-3.813-1.906c3.377,1.302,5.398-0.533,8.184,1.591c-2.26-2.085,5.729-2.331,5.162-1.591
	C371.287,94.471,356.799,88.149,348.139,84.156z M341.465,87.016c-0.114-3.783,8.244-1.875,8.579,0H341.465z M331.933,65.091
	c1.893,0.649,2.181,2.903,3.814,3.813c-2.173-1.31-3.584,2.457-3.814,0c1.697-0.462-0.413-1.017-0.953-1.907
	c1.621,0.213,2.359-1.074,0-0.953c0.131-1.775,0.627-3.187,1.906-3.813c0.011,1.26,1.671,0.872,1.907,1.906
	C333.67,64.287,332.086,63.973,331.933,65.091z M335.746,72.717c-2.935,0.012-7.225,4.136-8.58,0c0.368-1.104,4.63-1.104,1.906,0
	c-0.582,0.054-1.129,0.142-0.953,0.953c2.367,0.143,3.956-0.493,4.766-1.906c-0.74-0.213-1.88-0.026-1.906-0.954
	C332.677,71.337,334.939,71.3,335.746,72.717z M341.465,49.838c-3.611,2.301,6.232-1.586,2.859,0.954
	c-4.663-1.249,2.596,5.224-0.953,2.86c-1.684-3.603-5.365,0.721-6.672-2.86c-3.502,1.674,0.799,1.744-0.953,2.86
	c-1.426-2.645-3.899,1.655-4.767-0.954c0.74-0.213,1.88-0.025,1.906-0.953c-0.529,0.003-1.083-0.772,0-0.953
	C334.991,52.009,339.946,48.911,341.465,49.838z M352.904,53.652c-2.387-0.12-2.984-1.82-3.814,0.953
	c1.398,0.01,7.801-0.36,4.768,0.953c-7.928,0.014,1.828,1.079,0,1.907c-1.681,0.761-6.426,1.439-6.673,0
	c4.53-0.51-0.616-4.681,1.905-6.673c-1.409,0.496-2.401,1.41-3.811,1.906c-0.087-2.6,1.586-1.918,0-3.813
	c1.873-0.285,1.889,1.287,2.859,1.907c-0.004-0.957,0.771-1.134,0.951-1.907c-1.737-1.438-5.342-1.012-6.672-2.86
	C349.873,44.609,349.514,51.004,352.904,53.652z M357.67,46.979c1.114-5.116-6.627-1.373-6.672-2.859
	C352.314,40.639,361.181,43.37,357.67,46.979z M368.156,46.979c-1.385-0.521-4.928,1.114-4.766-0.953
	c8.854-0.701-4.525-5.899-7.627-6.672C360.131,35.79,367.164,41.324,368.156,46.979z M369.109,39.353
	c-0.676,0.06-5.126,2.707-3.814-0.954C365.935,38.78,377.423,38.616,369.109,39.353z M386.268,39.353
	c-1.068,0.202-1.484,1.058-1.906,1.906c3.504-1.718,7.174,0.814,11.44,2.86c-1.123,0.15-2.706-0.164-2.859,0.953
	c2.526,0.015,5.611-0.529,5.719,1.906c-0.74,0.214-1.881,0.026-1.907,0.954c2.729-0.188,5.203-0.119,4.767,2.86
	c-2.199,1.504-9.84,2.078-9.531-1.907c2.996-1.092,2.314,1.497,3.813,1.907c2.81-5.111-7.98-1.453-4.767-3.813
	c1.384-0.521,4.927,1.114,4.767-0.953c-4,0.129-5.325-1.733-8.58,0c-3.354-6.481-7.77-6.466-18.111-3.813h11.439
	c-1.027,2.786-8.506-0.878-9.533,1.907c4.307,0.778,12.005-1.837,13.346,1.906c-2.924-0.926-10.622-2.038-13.346,0
	c4.523-0.829,2.637,2.329,3.813,2.86h4.767c0.149,1.122-0.163,2.706,0.954,2.86c1.336-0.072,3.646,0.213,1.905,0.953
	c-1.974,0.568-6.261-1.178-6.672,0.954c3.305,0.508,9.041-1.416,9.533,1.906c-2.28,0.581-6.917-1.196-7.628,0.954h8.58
	c0.215,1.802-1.074,2.104-0.952,3.813c-10.149,0.934-9.654-8.776-16.206-11.439c5.126-1.847-3.533-6.374-0.953-8.579
	C374.264,40.675,382.387,38.039,386.268,39.353z M393.894,31.727c-0.505-1.982-14.618-0.354-6.673-1.906
	C391.467,29.818,396.018,28.518,393.894,31.727z M408.192,32.68c1.806-0.188,10.534-3.824,11.439-0.954
	c-11.871,0.299,1.766,0.638,0.954,1.907c-8.585,0.63-19.694-1.264-26.691,0.953c1.64-0.051,2.443,0.734,2.859,1.906
	c-1.685-1.538-9.718-1.658-8.578-2.859c4.956-1.716,13.524,0.18,18.11-1.907c-1.396-0.01-7.8,0.36-4.766-0.954
	C405.695,30.469,408.631,30.721,408.192,32.68z M424.398,30.773c-3.225-0.115-8.4-1.227-10.487-1.906
	c3.426-1,11.254,0.725,12.394,0.953C433.69,31.298,426.973,30.865,424.398,30.773z M466.341,35.54
	c-1.485,1.618-5.995,0.656-9.88-0.143c-0.188,0.191-0.925,0.53-2.512,1.096c-8.324-1.104-13.986-1.048-20.973-1.906
	c0.74-0.214,1.881-0.026,1.906-0.953c-3.375,1.669-2.344-0.635-5.719-0.953c-7.702-1.16,3.632-0.585,8.579,0
	c4.794,0.566,9.753,3.445,11.439,0.953c-1.122-0.149-2.706,0.164-2.86-0.953c4.521-1.302,10.731-1.252,14.299,0.953
	c-3.906,0.992-7.795-2.936-10.484,0c5.639-1.163,10.477,3.465,14.297,0.953c-1.121-0.149-2.705,0.164-2.859-0.953
	C463.939,33.493,466.201,33.456,466.341,35.54z M488.266,44.119c-3.309,0.084-7.404-3.972-9.532-1.907
	c2.441,0.736,5.403,0.951,6.673,2.86c-8.045-1.805-15.503-4.198-21.926-7.626c5.346-0.239,10.766,4.455,14.3,2.86
	c-3.853-1.233-8.067-2.101-11.44-3.813C474.961,37.723,483.243,39.291,488.266,44.119z M508.283,53.652
	c-2.636-0.12-3.273-1.82-1.906,0.953c-5.633-2.311-12.586-3.301-17.158-6.673c6.06-0.321,11.274,5.223,15.251,3.813
	c-4.038-1.364-8.091-2.712-11.438-4.767C499.959,47.36,504.193,50.435,508.283,53.652z M518.769,55.558
	c2.062,1.434,5.93,1.062,6.672,3.814c-4.046-1.99-9.462-2.612-12.392-5.719c1.123-0.15,2.706,0.163,2.859-0.954
	c-2.841-0.335-5.804-0.55-6.673-2.859c2.765,0.914,9.117,1.626,6.673,4.767c2.297,0.39,2.073-1.741,4.767-0.953
	C532.851,61.467,522.584,54.848,518.769,55.558z M527.349,62.231c-4.749-1.623-14.362-3.409-14.299-6.673
	C517.29,58.309,523.95,58.639,527.349,62.231z M540.695,67.951c-2.356-1.182-9.635-2.387-7.626-4.767
	C534.519,65.863,539.868,64.646,540.695,67.951z M537.836,68.904c-3.884-0.566-7.062-1.837-9.533-3.813
	C532.355,65.486,535.533,66.757,537.836,68.904z M534.975,70.81c-3.434-1.332-7.277-2.254-10.485-3.813
	C529.279,66.974,533.123,67.896,534.975,70.81z M531.162,71.764c-5.016-1.021-9.914-2.161-13.346-4.767
	C522.096,68.755,528.701,68.188,531.162,71.764z M525.441,72.717c-4.486-1.551-9.413-2.66-13.344-4.766
	C517.646,68.438,523.012,69.11,525.441,72.717z M509.236,71.764c4.001,0.13,6.523,1.738,8.58,3.813
	c-4.161-0.288-5.821-3.076-10.485-2.86c3.75,4.493-9.757-1.747-3.813,2.86c-6.54-0.767-12.203-2.414-17.158-4.767
	c5.814-1.023,10.262,4.319,14.299,1.907c-15.045-3.682,0.402-0.564,5.719-0.953c-2.488-0.371-5.229-0.49-6.674-1.907
	c8.47,0.966,17.054-1.184,22.879,3.813C517.415,74.36,512.952,69.357,509.236,71.764z M514.957,87.969
	c1.385-0.521,4.928,1.114,4.766-0.953c-0.738-0.214-1.881-0.027-1.906-0.954c3.029-0.012,3.861,2.176,5.461,3.595
	C521.33,88.402,513.005,89.689,514.957,87.969z M511.143,87.016c-0.26-1.963-3.55-0.897-3.812-2.86
	C510.333,85.734,522.384,87.093,511.143,87.016z M501.61,90.829c3.21,0.604,8.854-1.229,10.487,0.953
	C508.887,91.178,503.242,93.01,501.61,90.829z M503.518,87.969c-1.695-2.435-8.895,0.633-10.486-1.907
	c5.822-1.477,11.42-0.965,15.252,1.907c-1.426,0.163-3.518-0.341-3.814,0.953c1.587,0.114,8.636-0.52,5.721,0.954
	c-4.397-0.053-9.321,0.422-12.392-0.954C481.73,88.589,500.861,87.65,503.518,87.969z M467.295,94.642
	c3.318-0.035,9.068,0.535,4.765-1.906c4.939-0.177,11.142,0.208,12.393,0.953C482.588,96.811,467.379,96.013,467.295,94.642z
	 M481.593,99.408c-6.774-0.547-17.396-2.287-23.831,0c22.44-0.739,0.65,3.404-3.813,0c7.174-3.602,18.826-2.028,26.69-1.907
	C474.727,97.873,480.704,97.99,481.593,99.408z M459.668,107.987c4.299,0.731,9.9-0.647,9.532,0.954
	c-2.997-1.092-2.315,1.497-3.814,1.906c-2.691-3.819,0.355,0.262-2.859,0c-1.151-0.201-0.586-1.058,0-1.906
	C461.406,108.791,459.822,109.104,459.668,107.987z M447.275,102.268c9.637,3.6,10.785-1.842,2.861-0.953
	c5.783-0.649,6.563,0.132,12.391,1.906C458.487,104.073,447.621,106.145,447.275,102.268z M445.369,120.379
	c-0.932-0.976-1.885-1.928-2.859-2.86c-4.969,0.528-18.335-2.232-6.674-1.906c2.662,2.423,11.003-0.834,12.393,2.86
	c-7.69,1.255,4.336,0.095,4.768,1.906H445.369z M419.631,120.379c6.144,3.923,21.87,5.536,26.691,4.766
	c-0.742,0.211-1.108,0.798-0.953,1.907c-6.088,0.979-11.703-3.518-16.205-0.953c0.738,0.213,1.88,0.026,1.906,0.953
	c-1.697-0.527-3.959-0.49-4.766-1.907c1.121-0.149,2.705,0.164,2.859-0.953C425.736,123.771,417.18,123.515,419.631,120.379z
	 M400.566,120.379c6.861-0.765,13.386-1.866,20.019-2.86c4.533,1.505,8.501,3.573,13.346,4.767
	c-3.497,1.558-9.244-2.808-13.346-3.813C415.846,119.893,406.81,121.658,400.566,120.379z M389.127,124.192
	c0.736-1.476,11.003-1.476,8.578,0C394.246,123.032,390.182,126.099,389.127,124.192z M383.408,106.081
	c0.93-3.182-8.572-4.117-9.532-8.58c5.16,1.12,14.452,1.286,14.299,4.767c3.503-2.813,10.86,3.701,11.439,3.813
	c-4.314,0.619-4.324-0.643-4.768-1.906c-0.532,1.373-1.485,2.326-2.857,2.86c-0.108-1.164-0.287-2.258-1.906-1.907
	C392.547,108.519,383.648,106.584,383.408,106.081z M382.454,107.034c-3.512-1.476-16.965-2.432-14.298-3.813
	c3.295-0.373,6.603-3.515,8.579,0c-1.386,0.521-4.927-1.114-4.767,0.954c2.697,0.998,6.541-1.573,6.674,0
	C375.881,105.496,382.81,104.98,382.454,107.034z M371.969,110.847c4.718,0.685,9.496,1.309,15.252,0.954
	c4.367,1.667-9.109,0.71-12.393,0.953C374.815,111.179,372.185,112.22,371.969,110.847z M366.248,107.034
	c1.785,0.051,2.02-0.734,0.955-1.907c5.105-0.339,6.699,2.834,12.392,1.907v1.906c-0.054,0.581-0.142,1.129-0.952,0.953
	c-1.242-0.319-3.894-4.008-9.533-1.907c1.253-0.126,6.897-0.144,3.814,0.954C369.91,109.093,367.17,108.974,366.248,107.034z
	 M348.139,100.361c9.311,1.812,10.773-1.002,16.205,6.673c-4.037-0.127-11.138-2.165-10.486-3.813c0.584,0.279,3.668,2.372,3.813,0
	c-2.828,0.586-9.344-3.762-6.672,0c-1.313,0.041-2.094-0.449-2.859-0.953V100.361z M346.23,97.501
	c1.207-2.289,7.517,0.526,8.58-1.906c-1.965-0.577-6.622,1.539-5.721-1.906c6.168-0.118,18.262,2.067,23.833,5.719
	c-3.841,1.915-7.766,0.67-10.48,1.904c0.003,0.002,0.006,0.003,0.008,0.004c1.121,0.144,2.691-0.161,2.845,0.952
	c-0.935-0.2-1.88-0.543-2.845-0.952c-0.004-0.001-0.01-0.001-0.015-0.001l0.007-0.003c-4.128-1.755-8.604-4.723-14.305-2.857
	c2.31-0.315,7.715,1.059,5.719,1.907C351.759,98.963,346.754,100.475,346.23,97.501z M332.886,91.781
	c3.254-0.028,6.849,4.528,9.532,1.907c-3.203,0.025-5.043-1.313-6.672-2.86c4.797-0.03,9.061,0.472,11.439,2.86
	c-1.426,0.162-3.519-0.34-3.814,0.953c1.427,0.162,3.518-0.341,3.814,0.953c-3.894,3.316-11.55,1.025-13.346,0
	C336.762,94.659,332.744,93.051,332.886,91.781z M324.307,73.67c3.411,3.148,8.378-0.708,10.486,2.86
	c-4.015,0.381-7.201,1.419-9.533,0.953c1.126-0.462,2.161-1.016,2.86-1.906C325.947,75.843,324.536,75.347,324.307,73.67z
	 M316.68,69.857c1.641,0.051,2.444-0.734,2.86-1.906c-1.152-0.202-0.586-1.058,0-1.907c-1.558-0.086-4.147,1.588-1.906,0
	c0.254-1.273,6.532-0.31,3.813,0c-0.011,1.26-1.671,0.871-1.907,1.907c2.906,1.207,4.854-3.26,5.72-0.954
	c-2.837,2.645,3.126-1.655,2.86,0.954c-1.538,2.787-4.914-1.52-5.72,0.953c2.079-0.173,3.033,0.78,2.86,2.86
	c-3.57-1.905-6.13,1.11-7.625,0c0.581-0.055,1.128-0.143,0.953-0.954C317.847,70.596,316.707,70.784,316.68,69.857z M310.961,62.231
	c-0.228,1.036-1.57,2.289-1.907,0.953c2.39-0.988,3.016-4.323,4.767-0.953c0.135-2.626,2.622-4.85,0.953-6.673
	c-3.321,0.281,0.08,2.58-1.906,2.86c-0.211-0.742-0.799-1.108-1.906-0.953c0.003,0.529-0.772,1.082-0.954,0
	c6.351-4.305,7.425-2.742,13.346-2.86c-2.478,1.216-2.875,2.091-5.719,0.953c2.766,2.752-2.585,2.254-2.86,4.767
	c1.64,0.376,2.444-1.415,2.86,0c-1.374,0.534-2.327,1.487-2.86,2.86C312.972,63.397,312.67,62.11,310.961,62.231z"/>
	<ellipse transform="matrix(0.9519 -0.3063 0.3063 0.9519 -91.3708 67.5782)" fill="#FFFFFF" cx="169.643" cy="324.929" rx="7.085" ry="5.34"/>
</svg>
